<svg class="u-logo-sign" fill="#ddd" xmlns="http://www.w3.org/2000/svg" viewBox="0 0 40 50">
    <path d="M39.8 4.04291C39.8 20.274 33.7148 40.3551 20.4462 49.2177C20.2841 49.326 20.0936 49.3838 19.8986 49.3838C19.7037 49.3838 19.5131 49.326 19.3511 49.2177C6.08534 40.3551 -0.0251953 20.274 7.80668e-05 4.04291C-0.000302816 3.8282 0.0698339 3.61931 0.199712 3.44834C0.329589 3.27737 0.51202 3.15378 0.718964 3.09656C13.2574 -0.471641 26.5427 -0.471641 39.0811 3.09656C39.2866 3.15403 39.4678 3.277 39.597 3.44679C39.7262 3.61658 39.7965 3.82391 39.7972 4.0373L39.8 4.04291ZM29.3312 37.1903L11.4377 19.3024C11.4112 19.2764 11.39 19.2454 11.3756 19.2112C11.3611 19.1769 11.3536 19.1402 11.3534 19.103C11.3534 19.0286 11.383 18.9571 11.4357 18.9045C11.4884 18.8518 11.5598 18.8222 11.6343 18.8222H16.5373C21.3111 18.8222 23.3976 17.654 23.3864 15.7557C23.3751 13.8574 21.6116 13.0402 16.6159 13.0402H2.60885C2.57297 13.0404 2.53812 13.0523 2.50954 13.074C2.48096 13.0957 2.4602 13.1261 2.45039 13.1606C2.44057 13.1951 2.44223 13.2319 2.4551 13.2654C2.46798 13.2989 2.49139 13.3273 2.5218 13.3463L4.68127 14.6914C4.70364 14.7058 4.72271 14.7247 4.73724 14.747C4.75176 14.7693 4.76139 14.7943 4.76551 14.8206C5.48986 19.3177 6.67844 23.7276 8.31221 27.9796C11.1204 35.1516 15.0518 40.9196 19.6965 44.6572C19.7562 44.7063 19.8312 44.7331 19.9085 44.7331C19.9858 44.7331 20.0607 44.7063 20.1205 44.6572C22.7034 42.5229 24.9433 40.0046 26.7618 37.1903C26.7815 37.161 26.809 37.1378 26.8413 37.1234C26.8736 37.109 26.9093 37.104 26.9443 37.1089L29.2049 37.4431C29.2358 37.4476 29.2674 37.4422 29.2951 37.4277C29.3229 37.4132 29.3453 37.3903 29.3593 37.3623C29.3733 37.3344 29.3781 37.3027 29.3731 37.2718C29.368 37.2409 29.3534 37.2124 29.3312 37.1903ZM35.877 6.53655C35.8794 6.45783 35.8548 6.38066 35.8073 6.31784C35.7598 6.25502 35.6923 6.21032 35.6159 6.19115C30.5103 4.95434 25.2781 4.31634 20.025 4.29003H19.7835C14.5257 4.3154 9.28873 4.95341 4.17861 6.19115C4.1017 6.20936 4.03355 6.25382 3.98588 6.31686C3.93822 6.3799 3.91402 6.45759 3.91745 6.53655C3.9708 7.9659 4.08032 9.40648 4.23196 10.8499C8.22796 10.8218 16.5878 10.7797 20.7411 10.833C27.9552 10.9229 30.6539 12.4196 30.6707 15.4974C30.6707 18.0247 28.7247 19.8444 23.0382 20.3499C22.4541 20.4032 21.9149 20.4509 21.5555 20.4734C21.5149 20.4772 21.4763 20.4926 21.4442 20.5176C21.4121 20.5426 21.3879 20.5763 21.3743 20.6147C21.3607 20.6531 21.3584 20.6945 21.3676 20.7342C21.3768 20.7738 21.3972 20.81 21.4263 20.8385L30.637 30.0492C30.9347 29.3753 31.2183 28.6873 31.4935 27.9824C34.1075 21.1177 35.588 13.8736 35.877 6.53374V6.53655Z"></path>
</svg>