<svg class="u-logo-text" fill="#ddd" viewBox="0 0 193 50" xmlns="http://www.w3.org/2000/svg">
    <path d="M47.3596 16.7775C47.3596 16.7441 47.3662 16.711 47.3791 16.6801C47.392 16.6493 47.4108 16.6213 47.4346 16.5978C47.4584 16.5743 47.4866 16.5557 47.5175 16.5432C47.5485 16.5307 47.5817 16.5244 47.6151 16.5248H55.6127C55.6798 16.5248 55.7441 16.5514 55.7915 16.5988C55.8389 16.6462 55.8655 16.7105 55.8655 16.7775V32.1915C55.8655 32.2585 55.8389 32.3228 55.7915 32.3702C55.7441 32.4176 55.6798 32.4442 55.6127 32.4442H47.6151C47.5817 32.4446 47.5485 32.4383 47.5175 32.4258C47.4866 32.4132 47.4584 32.3947 47.4346 32.3712C47.4108 32.3477 47.392 32.3197 47.3791 32.2888C47.3662 32.258 47.3596 32.2249 47.3596 32.1915V16.7775ZM15.0097 23.7305C14.9462 23.7298 14.8841 23.7482 14.8312 23.7832C14.7783 23.8182 14.7371 23.8682 14.7129 23.9268C14.6887 23.9855 14.6827 24.05 14.6955 24.1121C14.7084 24.1742 14.7395 24.2311 14.785 24.2753L23.9677 32.228C24.1286 32.3689 24.3351 32.4467 24.549 32.447H33.3974C33.436 32.4465 33.4735 32.4342 33.505 32.412C33.5365 32.3897 33.5605 32.3585 33.5738 32.3223C33.5872 32.2861 33.5893 32.2468 33.5799 32.2094C33.5705 32.172 33.5499 32.1383 33.521 32.1128L26.3125 25.8675C26.2803 25.8357 26.2578 25.7954 26.2477 25.7514C26.2375 25.7073 26.2401 25.6612 26.2551 25.6186C26.2701 25.5759 26.2969 25.5384 26.3324 25.5103C26.368 25.4823 26.4107 25.465 26.4557 25.4603C27.5453 25.3957 29.2638 25.334 30.901 25.157C35.3379 24.6825 37.6855 23.4244 37.6855 20.9055C37.6855 17.9008 34.8605 16.5276 29.1656 16.5276H0.19385C0.154818 16.527 0.116545 16.5384 0.0841815 16.5602C0.051818 16.582 0.0269215 16.6133 0.0128467 16.6497C-0.00122818 16.6861 -0.00380966 16.7259 0.00545759 16.7639C0.0147248 16.8018 0.035395 16.8359 0.0646769 16.8618L1.89559 18.4877C2.0583 18.634 2.26932 18.715 2.48811 18.7151H23.7149C27.5509 18.7151 29.1796 19.3105 29.1796 21.1695C29.1796 22.8684 27.037 23.5564 22.6506 23.6322C17.4471 23.7108 15.0097 23.7305 15.0097 23.7305ZM115.96 24.573C115.93 24.5979 115.908 24.6316 115.898 24.6693C115.888 24.707 115.89 24.747 115.904 24.7836C115.917 24.8206 115.941 24.8526 115.974 24.8752C116.006 24.8978 116.044 24.9099 116.083 24.9099H119.726C119.931 24.9084 120.129 24.836 120.287 24.7049L127.44 18.7123C127.558 18.6125 127.71 18.5595 127.865 18.5631C128.02 18.5667 128.168 18.6268 128.282 18.732L142.884 32.2111C143.049 32.3631 143.264 32.4473 143.488 32.447H152.587C152.625 32.447 152.663 32.4353 152.694 32.4136C152.726 32.3919 152.75 32.3612 152.764 32.3254C152.778 32.2896 152.781 32.2505 152.772 32.213C152.764 32.1756 152.744 32.1417 152.716 32.1156L136.08 16.7635C135.916 16.6115 135.7 16.5273 135.477 16.5276H125.89C125.684 16.5295 125.485 16.6029 125.328 16.7354L115.96 24.573ZM87.4151 24.0506C87.313 24.1165 87.194 24.1516 87.0725 24.1516C86.9509 24.1516 86.832 24.1165 86.7299 24.0506L74.9356 16.668C74.7905 16.5727 74.6206 16.522 74.447 16.522H63.9249C63.8837 16.522 63.8437 16.5354 63.8107 16.56C63.7778 16.5846 63.7537 16.6193 63.742 16.6587C63.7303 16.6982 63.7317 16.7404 63.7459 16.779C63.7602 16.8176 63.7865 16.8506 63.821 16.873L83.3489 29.6529C83.4517 29.7209 83.5723 29.7571 83.6957 29.7571C83.819 29.7571 83.9396 29.7209 84.0425 29.6529L98.9257 19.9704C98.9611 19.9454 99.0023 19.93 99.0454 19.9255C99.0884 19.9211 99.132 19.9278 99.1717 19.945C99.2115 19.9621 99.2461 19.9893 99.2724 20.0237C99.2986 20.0582 99.3156 20.0988 99.3216 20.1417V32.1915C99.3216 32.2249 99.3282 32.258 99.3411 32.2888C99.354 32.3197 99.3729 32.3477 99.3967 32.3712C99.4204 32.3947 99.4486 32.4132 99.4796 32.4258C99.5106 32.4383 99.5438 32.4446 99.5772 32.4442H107.566C107.6 32.4446 107.633 32.4383 107.664 32.4258C107.695 32.4132 107.723 32.3947 107.747 32.3712C107.771 32.3477 107.79 32.3197 107.802 32.2888C107.815 32.258 107.822 32.2249 107.822 32.1915V16.7775C107.822 16.7441 107.815 16.711 107.802 16.6801C107.79 16.6493 107.771 16.6213 107.747 16.5978C107.723 16.5743 107.695 16.5557 107.664 16.5432C107.633 16.5307 107.6 16.5244 107.566 16.5248H99.2262C99.0539 16.5254 98.8854 16.5751 98.7403 16.668L87.4151 24.0506ZM192.241 16.5304H169.829C166.032 16.5304 162.859 16.9432 160.652 18.5186C158.565 20.0069 157.417 22.127 157.417 24.4915C157.417 26.856 159.177 32.4498 169.604 32.4498H181.199C181.237 32.4497 181.273 32.4385 181.305 32.4175C181.336 32.3965 181.36 32.3667 181.375 32.3319C181.389 32.297 181.393 32.2587 181.386 32.2217C181.378 32.1848 181.36 32.1508 181.334 32.1241L179.736 30.6245C179.654 30.5415 179.556 30.4756 179.448 30.4308C179.34 30.3859 179.224 30.363 179.107 30.3634H176.273C169.646 30.3634 165.92 28.3274 165.92 24.4915C165.92 20.5601 169.598 18.718 175.291 18.718H190.157C190.394 18.7171 190.621 18.6222 190.789 18.454L192.384 16.8561C192.412 16.8298 192.432 16.7953 192.441 16.7574C192.449 16.7194 192.446 16.6797 192.431 16.6437C192.417 16.6077 192.391 16.577 192.359 16.5557C192.326 16.5345 192.288 16.5237 192.249 16.5248L192.241 16.5304Z"></path>
</svg>